<mxfile host="www.draw.io" modified="2020-03-01T15:26:40.105Z" agent="Mozilla/5.0 (Macintosh; Intel Mac OS X 10_15_3) AppleWebKit/537.36 (KHTML, like Gecko) Chrome/80.0.3987.106 Safari/537.36" etag="M29--Z8x6o-1wiIWLJXi" version="12.7.9" type="github">
  <diagram id="ueSOmgLKzWzrUNX5bswN" name="Page-1">
    <mxGraphModel dx="1103" dy="714" grid="1" gridSize="10" guides="1" tooltips="1" connect="1" arrows="1" fold="1" page="1" pageScale="1" pageWidth="1000" pageHeight="1000" math="0" shadow="0" extFonts="Computer Modern^https://fonts.googleapis.com/css?family=Computer+Modern">
      <root>
        <mxCell id="0" />
        <mxCell id="1" parent="0" />
        <mxCell id="q0KzcMZJ23ADKiWyg9Wu-3" style="edgeStyle=orthogonalEdgeStyle;rounded=0;orthogonalLoop=1;jettySize=auto;html=1;exitX=0.5;exitY=0.88;exitDx=0;exitDy=0;exitPerimeter=0;entryX=0;entryY=0.5;entryDx=0;entryDy=0;" edge="1" parent="1" source="q0KzcMZJ23ADKiWyg9Wu-1" target="q0KzcMZJ23ADKiWyg9Wu-4">
          <mxGeometry relative="1" as="geometry">
            <mxPoint x="520" y="260.28571428571433" as="targetPoint" />
          </mxGeometry>
        </mxCell>
        <mxCell id="q0KzcMZJ23ADKiWyg9Wu-1" value="&lt;font size=&quot;1&quot;&gt;&lt;span style=&quot;font-size: 18px&quot;&gt;&lt;b style=&quot;font-family: &amp;#34;computer modern&amp;#34;&quot;&gt;&amp;nbsp;1) Define Custom Instruction&lt;/b&gt;&lt;br&gt;&lt;br&gt;&lt;font face=&quot;Courier New&quot;&gt;&amp;nbsp; &amp;nbsp; &amp;nbsp;custinstr rd, rs1, rs2&lt;/font&gt;&lt;br&gt;&lt;/span&gt;&lt;/font&gt;" style="strokeWidth=2;html=1;shape=mxgraph.flowchart.multi-document;whiteSpace=wrap;fillColor=#4285F4;strokeColor=#000000;align=left;fontColor=#FFFFFF;" vertex="1" parent="1">
          <mxGeometry x="30" y="30" width="360" height="140" as="geometry" />
        </mxCell>
        <mxCell id="q0KzcMZJ23ADKiWyg9Wu-2" value="&lt;span style=&quot;color: rgb(255 , 255 , 255) ; font-family: &amp;#34;computer modern&amp;#34; ; font-size: 19px ; text-align: center ; white-space: normal&quot;&gt;&lt;b&gt;&amp;nbsp; &amp;nbsp; &amp;nbsp;&lt;br&gt;&lt;br&gt;&lt;br&gt;&amp;nbsp; &amp;nbsp; 3) Call Custom Instruction from Software&lt;/b&gt;&lt;br&gt;&lt;br&gt;&amp;nbsp; &amp;nbsp; &amp;nbsp; &amp;nbsp; &amp;nbsp; &lt;/span&gt;&lt;span style=&quot;color: rgb(255 , 255 , 255) ; font-size: 19px ; text-align: center ; white-space: normal&quot;&gt;&lt;font face=&quot;Courier New&quot;&gt;_asm_(&lt;/font&gt;&lt;br&gt;&amp;nbsp; &amp;nbsp; &amp;nbsp; &amp;nbsp; &amp;nbsp; &amp;nbsp; &amp;nbsp;&lt;/span&gt;&lt;span style=&quot;color: rgb(255 , 255 , 255) ; font-family: &amp;#34;courier new&amp;#34; ; font-size: 19px ; text-align: center&quot;&gt;custinstr&amp;nbsp;&lt;/span&gt;&lt;span style=&quot;color: rgb(255 , 255 , 255) ; font-family: &amp;#34;courier new&amp;#34; ; font-size: 18px&quot;&gt;$t1, $a2, $a3&lt;br&gt;&lt;/span&gt;&lt;span style=&quot;color: rgb(255 , 255 , 255) ; font-size: 19px ; text-align: center ; white-space: normal&quot;&gt;&amp;nbsp; &amp;nbsp; &amp;nbsp; &amp;nbsp; &amp;nbsp;)&lt;br&gt;&lt;br&gt;&lt;br&gt;&lt;br&gt;&lt;/span&gt;" style="shape=internalStorage;whiteSpace=wrap;html=1;dx=15;dy=15;rounded=1;arcSize=8;strokeWidth=2;fillColor=#34A853;strokeColor=#000000;align=left;" vertex="1" parent="1">
          <mxGeometry x="530" y="340" width="410" height="170" as="geometry" />
        </mxCell>
        <mxCell id="q0KzcMZJ23ADKiWyg9Wu-5" style="edgeStyle=orthogonalEdgeStyle;rounded=0;orthogonalLoop=1;jettySize=auto;html=1;exitX=0.5;exitY=1;exitDx=0;exitDy=0;entryX=0;entryY=0.5;entryDx=0;entryDy=0;fontColor=#FFFFFF;" edge="1" parent="1" source="q0KzcMZJ23ADKiWyg9Wu-4" target="q0KzcMZJ23ADKiWyg9Wu-2">
          <mxGeometry relative="1" as="geometry" />
        </mxCell>
        <mxCell id="q0KzcMZJ23ADKiWyg9Wu-4" value="&lt;font face=&quot;Computer Modern&quot; style=&quot;font-size: 19px&quot;&gt;&lt;b&gt;2) Implement Support for &lt;br&gt;Instruction in Processor&lt;/b&gt;&lt;br&gt;&lt;/font&gt;" style="shape=hexagon;perimeter=hexagonPerimeter2;whiteSpace=wrap;html=1;fillColor=#EA4335;strokeColor=#000000;fontColor=#FFFFFF;" vertex="1" parent="1">
          <mxGeometry x="300" y="180" width="300" height="150" as="geometry" />
        </mxCell>
      </root>
    </mxGraphModel>
  </diagram>
</mxfile>
